<svg width="908" height="947" viewBox="0 0 908 947" fill="none" xmlns="http://www.w3.org/2000/svg">
<path d="M252.894 314.511L256.172 317.665C348.128 394.69 447.337 387.194 522.932 336.945C570.568 305.263 786.099 161.931 907.922 80.938V0H0.0234761V213.683C55.3518 204.106 144.545 213.511 252.886 314.511H252.894ZM594.441 669.945L487.204 567.114C472.134 553.397 459.262 543.327 456.476 541.191C368.809 479.635 287.103 498.343 251.869 511.442C241.212 515.698 231.016 521.512 223.809 526.066L0.00782039 675.751V947H907.906V751.775C887.953 764.451 764.949 830.961 594.426 669.93L594.441 669.945ZM244.842 338.775C239.999 334.253 234.639 329.433 229.858 325.489C122.644 242.548 21.3614 283.166 0 293.283V386.639L52.5349 351.248C52.5349 351.248 133.489 291.202 259.467 352.774L244.842 338.775V338.775ZM370.256 459.345C365.538 455.167 360.757 450.871 355.992 446.325C260.867 365.849 168.919 386.31 130.79 400.441C119.976 404.776 109.663 410.637 102.394 415.206L0 483.703V579.852L171.267 464.455C171.267 464.455 251.298 405.074 376.007 464.877L370.256 459.345V459.345ZM907.984 560.009C872.28 584.093 835.974 608.545 821.537 618.232C789.237 639.867 714.511 693.458 590.106 633.999L604.731 648.06C610.2 652.989 616.89 658.717 624.144 664.312C713.486 731.056 808.963 721.455 880.551 674.038C890.465 667.481 899.518 661.448 907.992 655.775V560.048L907.984 560.009ZM907.992 367.484C829.589 420.206 723.752 491.371 703.885 504.697C671.593 526.332 595.748 580.658 474.004 522.482L488.12 536.011C489.724 537.498 491.32 538.945 492.908 540.479L492.83 540.557L492.908 540.479C587.423 620.447 691.491 608.217 762.868 560.533C803.134 533.648 860.371 494.963 908 462.671L907.922 367.484H907.992ZM907.922 175.929C794.839 251.687 609.316 375.989 586.867 391.052C554.301 412.875 477.525 468.015 357.33 410.613L371.915 424.666C380.608 432.522 392.298 442.342 404.716 450.449C487.908 503.594 574.974 494.196 645.85 446.888C696.804 412.843 822.124 329.535 907.922 272.516V175.929" fill="white"/>
</svg>
